<?xml version="1.0" encoding="UTF-8" standalone="no"?>
<svg
   xmlns:dc="http://purl.org/dc/elements/1.1/"
   xmlns:cc="http://creativecommons.org/ns#"
   xmlns:rdf="http://www.w3.org/1999/02/22-rdf-syntax-ns#"
   xmlns:svg="http://www.w3.org/2000/svg"
   xmlns="http://www.w3.org/2000/svg"
   xmlns:sodipodi="http://sodipodi.sourceforge.net/DTD/sodipodi-0.dtd"
   xmlns:inkscape="http://www.inkscape.org/namespaces/inkscape"
   xml:space="preserve"
   viewBox="0 0 100 100"
   height="32"
   width="32"
   version="1.1"
   y="0px"
   x="0px"
   id="svg10"
   sodipodi:docname="option-gear.svg"
   inkscape:version="0.92.4 5da689c313, 2019-01-14"><defs
   id="defs14" /><sodipodi:namedview
   pagecolor="#ffffff"
   bordercolor="#666666"
   borderopacity="1"
   objecttolerance="10"
   gridtolerance="10"
   guidetolerance="10"
   inkscape:pageopacity="0"
   inkscape:pageshadow="2"
   inkscape:window-width="1920"
   inkscape:window-height="1013"
   id="namedview12"
   showgrid="false"
   units="px"
   inkscape:zoom="8"
   inkscape:cx="69.402445"
   inkscape:cy="7.5899056"
   inkscape:window-x="0"
   inkscape:window-y="0"
   inkscape:window-maximized="1"
   inkscape:current-layer="svg10" />
<metadata
   id="metadata2">
<rdf:RDF>
<cc:Work
   rdf:about="">
<dc:format>image/svg+xml</dc:format>
<dc:type
   rdf:resource="http://purl.org/dc/dcmitype/StillImage" />
<dc:title></dc:title>
</cc:Work>
</rdf:RDF>
</metadata>


<path
   d="m 49.999378,29.260021 c -11.436163,0 -20.739936,9.302882 -20.739936,20.739935 0,11.436165 9.302884,20.739937 20.739936,20.739937 11.436164,0 20.739936,-9.302884 20.739936,-20.739937 0,-11.436163 -9.303772,-20.739935 -20.739936,-20.739935 z m 0,38.517277 c -9.802426,0 -17.777341,-7.974471 -17.777341,-17.777342 0,-9.80287 7.974471,-17.777341 17.777341,-17.777341 9.802871,0 17.777342,7.974471 17.777342,17.777341 0,9.802871 -7.974471,17.777342 -17.777342,17.777342 z"
   id="path4"
   inkscape:connector-curvature="0"
   style="fill:#9191af;stroke-width:0.88886708" /><path
   d="m 85.878498,41.110397 h -2.989437 c -0.763377,-2.831932 -1.88422,-5.542976 -3.348184,-8.083358 l 2.112481,-2.112481 c 0.77774,-0.777741 1.205837,-1.813289 1.205837,-2.912462 0,-1.100684 -0.428132,-2.134703 -1.205837,-2.913973 l -6.744901,-6.744902 c -1.555518,-1.554005 -4.267985,-1.556939 -5.826435,0 l -2.112482,2.112482 c -2.542071,-1.462186 -5.251604,-2.583581 -8.082646,-3.346495 v -2.989971 c 0,-2.270967 -1.847066,-4.118299 -4.118121,-4.118299 h -9.540211 c -2.271056,0 -4.118299,1.847332 -4.118299,4.118299 v 2.989526 c -2.830953,0.762933 -5.540485,1.884398 -8.084069,3.348007 l -2.11248,-2.112481 c -1.55694,-1.558451 -4.270918,-1.555518 -5.826436,0 l -6.744901,6.7449 c -0.777741,0.777741 -1.205837,1.813289 -1.205837,2.913973 0,1.099173 0.428132,2.133281 1.205837,2.912463 l 2.112482,2.11248 c -1.462187,2.539139 -2.585092,5.250184 -3.346496,8.082648 h -2.989082 c -2.270967,0 -4.118299,1.847954 -4.118299,4.119009 v 9.538432 c 0,2.272479 1.847332,4.119811 4.118299,4.119811 h 2.989527 c 0.762932,2.830952 1.884398,5.540486 3.348006,8.084068 l -2.112481,2.112482 c -0.777741,0.777741 -1.205837,1.813289 -1.205837,2.912462 0,1.100684 0.428131,2.134703 1.205837,2.913972 l 6.744901,6.744902 c 1.555517,1.556939 4.269406,1.55845 5.826436,0 l 2.11248,-2.112482 c 2.543582,1.462187 5.253116,2.585093 8.084068,3.348008 v 2.989526 c 0,2.271055 1.847067,4.11812 4.118122,4.11812 h 9.538433 c 2.271055,0 4.118299,-1.847331 4.118299,-4.118298 v -2.989526 c 2.830953,-0.762933 5.540486,-1.884398 8.084068,-3.348007 l 2.112482,2.112481 c 1.55845,1.558451 4.269406,1.555518 5.826435,0 l 6.744901,-6.7449 c 0.77774,-0.777742 1.205837,-1.81329 1.205837,-2.913974 0,-1.099174 -0.428132,-2.133282 -1.205837,-2.912462 l -2.112482,-2.112481 c 1.462187,-2.543583 2.585092,-5.253116 3.348007,-8.084069 h 2.989527 c 2.271944,0 4.119009,-1.847066 4.119009,-4.118122 v -9.540209 c -0.0015,-2.271055 -1.848843,-4.118299 -4.119809,-4.118299 z m 1.155528,13.658332 c 0,0.637006 -0.518494,1.155526 -1.155528,1.155526 h -5.321202 l -0.266651,1.145128 c -0.771822,3.313963 -2.072483,6.458953 -3.870927,9.349104 l -0.622199,0.998465 3.761331,3.761329 c 0.451828,0.45183 0.451828,1.185127 0,1.635516 l -6.744902,6.7449 c -0.450353,0.450355 -1.183615,0.453315 -1.635515,0 l -3.761331,-3.761329 -0.998464,0.622198 c -2.888729,1.798445 -6.033808,3.100635 -9.349104,3.870927 l -1.14575,0.268438 v 5.321292 c 0,0.637006 -0.518494,1.155527 -1.155527,1.155527 h -9.54021 c -0.637007,0 -1.155528,-0.518494 -1.155528,-1.155527 V 80.558132 L 42.92677,80.291889 C 39.613074,79.519463 36.468262,78.21905 33.577666,76.420873 l -0.998465,-0.622198 -3.76133,3.76133 c -0.453313,0.453313 -1.186637,0.450353 -1.635515,0 l -6.744902,-6.744902 c -0.451828,-0.451829 -0.451828,-1.185126 0,-1.635515 l 3.761686,-3.762575 -0.622206,-0.998196 c -1.799068,-2.888819 -3.101258,-6.033631 -3.871017,-9.349104 l -0.266659,-1.144862 h -5.321471 c -0.637006,0 -1.155527,-0.518494 -1.155527,-1.155527 v -9.540211 c 0,-0.637007 0.518494,-1.155527 1.155527,-1.155527 h 5.321292 l 0.26666,-1.145127 c 0.771821,-3.315386 2.072483,-6.460464 3.870927,-9.349104 l 0.622199,-0.998465 -3.76133,-3.76133 c -0.451829,-0.451828 -0.451829,-1.185127 0,-1.635515 l 6.744901,-6.744901 c 0.450353,-0.450354 1.183615,-0.453314 1.635515,0 l 3.76133,3.761329 0.998465,-0.622197 c 2.888729,-1.798446 6.033808,-3.100635 9.349104,-3.870928 l 1.145128,-0.26666 V 14.11833 c 0,-0.637007 0.518493,-1.155527 1.155526,-1.155527 h 9.538434 c 0.638491,0 1.156948,0.518494 1.156948,1.155527 v 5.321291 l 1.145128,0.26666 c 3.313964,0.771821 6.458953,2.072483 9.349104,3.870928 l 0.998465,0.622198 3.76133,-3.76133 c 0.453313,-0.453313 1.186637,-0.450353 1.635515,0 l 6.744902,6.744901 c 0.451828,0.451829 0.451828,1.185127 0,1.635515 l -3.761331,3.76133 0.622199,0.998465 c 1.798444,2.887307 3.100634,6.032297 3.870927,9.349105 l 0.266651,1.145127 h 5.321291 c 0.637007,0 1.155528,0.518493 1.155528,1.155526 z"
   id="path6"
   inkscape:connector-curvature="0"
   style="fill:#aaaabe;stroke-width:0.88886708" /><path
   d="m 49.999378,35.186097 c -8.168688,0 -14.813858,6.645171 -14.813858,14.813859 0,8.168689 6.64517,14.813859 14.813858,14.813859 8.168689,0 14.81386,-6.64517 14.81386,-14.813859 0,-8.168688 -6.645171,-14.813859 -14.81386,-14.813859 z m 0,26.665124 c -6.534951,0 -11.851264,-5.316313 -11.851264,-11.851265 0,-6.534506 5.316847,-11.851265 11.851264,-11.851265 6.534507,0 11.851265,5.316848 11.851265,11.851265 0,6.534507 -5.316847,11.851265 -11.851265,11.851265 z"
   id="path8"
   inkscape:connector-curvature="0"
   style="fill:#7d7d91;stroke-width:0.88886708" />
</svg>